<?xml version="1.0" encoding="UTF-8" standalone="no"?>
<!-- Created with Inkscape (http://www.inkscape.org/) -->

<svg
   xmlns:dc="http://purl.org/dc/elements/1.1/"
   xmlns:cc="http://creativecommons.org/ns#"
   xmlns:rdf="http://www.w3.org/1999/02/22-rdf-syntax-ns#"
   xmlns:svg="http://www.w3.org/2000/svg"
   xmlns="http://www.w3.org/2000/svg"
   xmlns:sodipodi="http://sodipodi.sourceforge.net/DTD/sodipodi-0.dtd"
   xmlns:inkscape="http://www.inkscape.org/namespaces/inkscape"
   width="800"
   height="600"
   viewBox="0 0 799.99999 600.00001"
   id="svg5343"
   version="1.1"
   inkscape:version="0.91 r13725"
   sodipodi:docname="bg_menu.svg"
   inkscape:export-filename="/home/ali/repos/gglyptodon/ld39/assets/img/bg_menu.png"
   inkscape:export-xdpi="90"
   inkscape:export-ydpi="90">
  <defs
     id="defs5345" />
  <sodipodi:namedview
     id="base"
     pagecolor="#ffffff"
     bordercolor="#666666"
     borderopacity="1.0"
     inkscape:pageopacity="0.0"
     inkscape:pageshadow="2"
     inkscape:zoom="0.7"
     inkscape:cx="358.66935"
     inkscape:cy="317.14286"
     inkscape:document-units="px"
     inkscape:current-layer="g5953"
     showgrid="false"
     inkscape:window-width="1366"
     inkscape:window-height="720"
     inkscape:window-x="0"
     inkscape:window-y="0"
     inkscape:window-maximized="1"
     units="px" />
  <metadata
     id="metadata5348">
    <rdf:RDF>
      <cc:Work
         rdf:about="">
        <dc:format>image/svg+xml</dc:format>
        <dc:type
           rdf:resource="http://purl.org/dc/dcmitype/StillImage" />
        <dc:title />
      </cc:Work>
    </rdf:RDF>
  </metadata>
  <g
     inkscape:label="Layer 1"
     inkscape:groupmode="layer"
     id="layer1"
     transform="translate(0,-452.36216)">
    <g
       id="g5953"
       transform="matrix(0.60051143,0.14781059,0.70563147,-0.24576593,-130.81357,223.71861)">
      <rect
         style="color:#000000;clip-rule:nonzero;display:inline;overflow:visible;visibility:visible;opacity:1;isolation:auto;mix-blend-mode:normal;color-interpolation:sRGB;color-interpolation-filters:linearRGB;solid-color:#000000;solid-opacity:1;fill:#4d4d4d;fill-opacity:1;fill-rule:evenodd;stroke:#ffffff;stroke-width:4.099154;stroke-linecap:round;stroke-linejoin:miter;stroke-miterlimit:4;stroke-dasharray:none;stroke-dashoffset:0;stroke-opacity:1;color-rendering:auto;image-rendering:auto;shape-rendering:auto;text-rendering:auto;enable-background:accumulate"
         id="rect5989"
         width="912.48822"
         height="2217.6379"
         x="150.56798"
         y="841.07172"
         transform="matrix(0.85695245,0.51539547,0.76155324,-0.64810236,0,0)" />
      <g
         id="g5991"
         transform="translate(626.84269,-393.76745)">
        <path
           sodipodi:nodetypes="ccccccccccccc"
           inkscape:connector-curvature="0"
           style="color:#000000;clip-rule:nonzero;display:inline;overflow:visible;visibility:visible;opacity:1;isolation:auto;mix-blend-mode:normal;color-interpolation:sRGB;color-interpolation-filters:linearRGB;solid-color:#000000;solid-opacity:1;fill:#800000;fill-opacity:1;fill-rule:evenodd;stroke:none;stroke-width:4;stroke-linecap:round;stroke-linejoin:miter;stroke-miterlimit:4;stroke-dasharray:none;stroke-dashoffset:0;stroke-opacity:1;color-rendering:auto;image-rendering:auto;shape-rendering:auto;text-rendering:auto;enable-background:accumulate"
           d="m 1811.1342,-1021.8184 c -89.8993,0.088 -218.7839,106.12316 -225.1484,190.56596 l -0.6074,0 0,258.57031 0,12.85742 0.6152,0 c 7.1164,83.87586 81.457,148.53715 170.8125,148.57227 57.9895,4.33414 172.8005,-73.73787 182.4546,-141.53046 l 0.6835,0 0,-12.85742 104.2505,-358.62762 -0.4317,0 c -6.3694,-84.50706 -142.6611,-97.55026 -232.6288,-97.55046 z"
           id="path5891" />
        <path
           sodipodi:nodetypes="ccccccccccccc"
           inkscape:connector-curvature="0"
           style="color:#000000;clip-rule:nonzero;display:inline;overflow:visible;visibility:visible;opacity:1;isolation:auto;mix-blend-mode:normal;color-interpolation:sRGB;color-interpolation-filters:linearRGB;solid-color:#000000;solid-opacity:1;fill:none;fill-opacity:1;fill-rule:evenodd;stroke:#ffffff;stroke-width:4;stroke-linecap:round;stroke-linejoin:miter;stroke-miterlimit:4;stroke-dasharray:none;stroke-dashoffset:0;stroke-opacity:1;color-rendering:auto;image-rendering:auto;shape-rendering:auto;text-rendering:auto;enable-background:accumulate"
           d="m 1809.7053,-996.96717 c -80.2378,0.0801 -201.1098,100.24227 -206.7903,177.11001 l -0.5421,0 0,235.37489 0,11.70403 0.5491,0 c 6.3516,76.35166 72.7028,135.21242 152.4553,135.24438 59.1808,-0.79479 155.8033,-53.04634 162.153,-129.3762 l 0.6101,0 0,-11.70403 83.7906,-315.18602 -0.3853,0 c -5.6849,-76.9262 -111.5415,-103.16689 -191.8404,-103.16706 z"
           id="path5891-9" />
        <path
           sodipodi:nodetypes="ccccccccccccc"
           inkscape:connector-curvature="0"
           style="color:#000000;clip-rule:nonzero;display:inline;overflow:visible;visibility:visible;opacity:1;isolation:auto;mix-blend-mode:normal;color-interpolation:sRGB;color-interpolation-filters:linearRGB;solid-color:#000000;solid-opacity:1;fill:none;fill-opacity:1;fill-rule:evenodd;stroke:#ffffff;stroke-width:4;stroke-linecap:round;stroke-linejoin:miter;stroke-miterlimit:4;stroke-dasharray:none;stroke-dashoffset:0;stroke-opacity:1;color-rendering:auto;image-rendering:auto;shape-rendering:auto;text-rendering:auto;enable-background:accumulate"
           d="m 1808.9912,-969.98727 c -68.7113,0.0723 -180.024,94.46761 -184.8885,163.89715 l -0.4642,0 0,212.59856 0,10.57148 0.4702,0 c 5.4391,68.96339 62.2587,122.12841 130.5544,122.15728 58.6987,-0.003 130.9202,-49.69267 136.3578,-118.63637 l 0.5225,0 0,-10.57148 70.885,-275.758 -0.3299,0 c -4.8682,-69.48234 -84.3438,-104.25846 -153.1073,-104.25862 z"
           id="path5891-9-7" />
        <path
           sodipodi:nodetypes="ccccccccccccc"
           inkscape:connector-curvature="0"
           style="color:#000000;clip-rule:nonzero;display:inline;overflow:visible;visibility:visible;opacity:1;isolation:auto;mix-blend-mode:normal;color-interpolation:sRGB;color-interpolation-filters:linearRGB;solid-color:#000000;solid-opacity:1;fill:#4d4d4d;fill-opacity:1;fill-rule:evenodd;stroke:#ffffff;stroke-width:4;stroke-linecap:round;stroke-linejoin:miter;stroke-miterlimit:4;stroke-dasharray:none;stroke-dashoffset:0;stroke-opacity:1;color-rendering:auto;image-rendering:auto;shape-rendering:auto;text-rendering:auto;enable-background:accumulate"
           d="m 1810.4198,-934.4573 c -56.8213,0.0624 -158.2733,87.10587 -162.296,147.0529 l -0.3839,0 0,183.56235 0,9.12765 0.3889,0 c 4.4979,59.54453 51.4853,105.4484 107.963,105.47334 56.4615,-0.0481 103.4244,-45.9458 107.921,-105.47334 l 0.4321,0 0,-9.12765 54.3281,-224.12833 -0.2729,0 c -4.0258,-59.99262 -51.2156,-106.48679 -108.0803,-106.48692 z"
           id="path5891-9-8" />
        <path
           inkscape:connector-curvature="0"
           id="path5959"
           d="m 1919.0443,-828.26753 98.0237,-16.61132"
           style="fill:#ffffff;fill-rule:evenodd;stroke:#ffffff;stroke-width:3.98500443;stroke-linecap:butt;stroke-linejoin:miter;stroke-miterlimit:4;stroke-dasharray:none;stroke-opacity:1" />
      </g>
      <path
         style="fill:#00ff00;fill-rule:evenodd;stroke:#000000;stroke-width:6.62983084px;stroke-linecap:butt;stroke-linejoin:miter;stroke-opacity:1"
         d="m 2579.5523,-1232.9736 35.12,-38.4377 c 0,0 18.5788,-35.3241 11.3721,-53.7417 -7.2062,-18.4182 -32.0163,-5.9668 -32.0163,-5.9668 z"
         id="path4701-8"
         inkscape:connector-curvature="0"
         sodipodi:nodetypes="ccccc" />
      <path
         style="fill:#008000;fill-rule:evenodd;stroke:#000000;stroke-width:6.62983084px;stroke-linecap:butt;stroke-linejoin:miter;stroke-opacity:1"
         d="m 2569.3627,-1214.3083 c 0,0 -20.3219,16.859 -39.1182,24.6242 -28.7504,11.8773 -60.1661,13.8246 -58.6955,-9.4605 2.4333,-38.5097 93.9997,-116.2465 105.119,-139.2262 9.4895,-14.2539 34.2072,5.5764 34.3759,36.3391 0.094,17.393 -16.84,39.3519 -28.4496,58.4635 -8.9259,14.6934 -13.2316,29.2599 -13.2316,29.2599 z"
         id="path4699-0"
         inkscape:connector-curvature="0"
         sodipodi:nodetypes="cscccsc" />
      <path
         style="fill:#decd87;fill-rule:evenodd;stroke:#000000;stroke-width:6.62983084px;stroke-linecap:butt;stroke-linejoin:miter;stroke-opacity:1"
         d="m 2580.8835,-1233.252 c 0,0 0.4331,7.2683 -15.1755,23.9445 -21.2274,22.6791 -39.9909,42.7073 -21.5408,46.4132 13.514,2.7143 61.8412,-34.6965 67.6433,-54.7989 9.4831,-22.5879 -5.643,-35.5057 -5.643,-35.5057 z"
         id="path4703-9"
         inkscape:connector-curvature="0"
         sodipodi:nodetypes="cssccc" />
      <path
         style="fill:#decd87;fill-rule:evenodd;stroke:#000000;stroke-width:6.62983084px;stroke-linecap:butt;stroke-linejoin:miter;stroke-opacity:1"
         d="m 2594.6983,-1246.4565 c 0,0 25.5691,-4.237 48.3361,-27.1582 10.8706,-11.8961 20.6592,-20.9114 12.54,-22.5994 -8.1184,-1.6887 -27.3649,17.4327 -27.3649,17.4327 l -21.4499,18.1927 z"
         id="path4705-5"
         inkscape:connector-curvature="0"
         sodipodi:nodetypes="cccccc" />
      <path
         style="fill:#decd87;fill-rule:evenodd;stroke:#000000;stroke-width:6.62983084px;stroke-linecap:butt;stroke-linejoin:miter;stroke-opacity:1"
         d="m 2599.387,-1334.1479 c 0,0 15.3187,1.8038 24.8089,-12.4505 9.4904,-14.2542 4.3657,-25.2468 4.3657,-25.2468 0,0 -17.2424,3.2342 -24.7428,14.795 -7.5,11.5604 -4.4318,22.9023 -4.4318,22.9023 z"
         id="path4707-1"
         inkscape:connector-curvature="0"
         sodipodi:nodetypes="ccccc" />
      <ellipse
         style="color:#000000;clip-rule:nonzero;display:inline;overflow:visible;visibility:visible;opacity:1;isolation:auto;mix-blend-mode:normal;color-interpolation:sRGB;color-interpolation-filters:linearRGB;solid-color:#000000;solid-opacity:1;fill:#008000;fill-opacity:0.59523806;fill-rule:evenodd;stroke:#000000;stroke-width:3.76557755;stroke-linecap:butt;stroke-linejoin:miter;stroke-miterlimit:4;stroke-dasharray:none;stroke-dashoffset:0;stroke-opacity:1;color-rendering:auto;image-rendering:auto;shape-rendering:auto;text-rendering:auto;enable-background:accumulate"
         id="path4717-4"
         cx="-903.41644"
         cy="2347.7649"
         rx="8.3402157"
         ry="16.128855"
         transform="matrix(-0.90730397,-0.42047533,0.74371469,-0.66849716,0,0)" />
      <path
         style="fill:#112b00;fill-rule:evenodd;stroke:#000000;stroke-width:3.61033058px;stroke-linecap:butt;stroke-linejoin:miter;stroke-opacity:1"
         d="m 2543.8099,-1226.9156 27.2813,-13.0451 18.0724,-25.1457 c 0,0 -25.3651,13.9094 -30.228,18.1481 -4.8632,4.2391 -15.1257,20.0427 -15.1257,20.0427 z"
         id="path4746-1"
         inkscape:connector-curvature="0" />
      <path
         style="fill:#112b00;fill-rule:evenodd;stroke:#000000;stroke-width:3.61033058px;stroke-linecap:butt;stroke-linejoin:miter;stroke-opacity:1"
         d="m 2570.1253,-1264.6135 -10.0745,-5.6807 35.8534,-24.6915 -5.4416,20.2488 z"
         id="path4748-4"
         inkscape:connector-curvature="0" />
      <path
         style="fill:#112b00;fill-rule:evenodd;stroke:#000000;stroke-width:3.61033058px;stroke-linecap:butt;stroke-linejoin:miter;stroke-opacity:1"
         d="m 2564.0284,-1281.3649 29.0745,-21.3173 -3.3566,-13.6234 -25.7369,21.6882 z"
         id="path4750-8"
         inkscape:connector-curvature="0" />
      <path
         style="fill:#112b00;fill-rule:evenodd;stroke:#000000;stroke-width:3.61033058px;stroke-linecap:butt;stroke-linejoin:miter;stroke-opacity:1"
         d="m 2548.4126,-1297.8698 16.2983,-3.6209 19.6163,-16.5024 -5.3767,-10.3717 z"
         id="path4752-9"
         inkscape:connector-curvature="0"
         sodipodi:nodetypes="ccccc" />
      <path
         style="fill:#112b00;fill-rule:evenodd;stroke:#000000;stroke-width:3.61033058px;stroke-linecap:butt;stroke-linejoin:miter;stroke-opacity:1"
         d="m 2472.2477,-1190.331 14.2595,-13.6221 8.883,-23.9938 -10.6728,-2.9227 -14.2402,26.8744 z"
         id="path4756-4"
         inkscape:connector-curvature="0"
         sodipodi:nodetypes="cccccc" />
      <path
         style="fill:#112b00;fill-rule:evenodd;stroke:#000000;stroke-width:3.61033058px;stroke-linecap:butt;stroke-linejoin:miter;stroke-opacity:1"
         d="m 2566.6188,-1230.2479 -30.6192,12.6746 -8.4078,12.0999 35.2141,-13.251 z"
         id="path4758-4"
         inkscape:connector-curvature="0" />
      <path
         style="fill:#112b00;fill-rule:evenodd;stroke:#000000;stroke-width:3.61033058px;stroke-linecap:butt;stroke-linejoin:miter;stroke-opacity:1"
         d="m 2522.9551,-1196.2135 28.2701,-10.3292 -11.4162,12.6349 -24.0045,8.847 z"
         id="path4760-7"
         inkscape:connector-curvature="0" />
      <path
         style="fill:#112b00;fill-rule:evenodd;stroke:#000000;stroke-width:3.61033058px;stroke-linecap:butt;stroke-linejoin:miter;stroke-opacity:1"
         d="m 2502.8442,-1181.0695 16.156,-26.0097 -29.0941,8.0651 -12.0136,15.3917 11.0022,3.8282 z"
         id="path4762-6"
         inkscape:connector-curvature="0"
         sodipodi:nodetypes="cccccc" />
      <path
         style="fill:#112b00;fill-rule:evenodd;stroke:#000000;stroke-width:3.61033058px;stroke-linecap:butt;stroke-linejoin:miter;stroke-opacity:1"
         d="m 2546.1395,-1242.5138 -19.2257,21.9767 -28.7646,8.9705 12.5508,-22.7182 33.01,-23.704 z"
         id="path4764-8"
         inkscape:connector-curvature="0" />
      <path
         style="fill:#112b00;fill-rule:evenodd;stroke:#000000;stroke-width:3.61033058px;stroke-linecap:butt;stroke-linejoin:miter;stroke-opacity:1"
         d="m 2496.8965,-1245.8093 15.4319,2.7997 33.0106,-23.7045 5.7713,-19.3434 -23.4071,6.09 z"
         id="path4766-2"
         inkscape:connector-curvature="0"
         sodipodi:nodetypes="cccccc" />
      <ellipse
         style="color:#000000;clip-rule:nonzero;display:inline;overflow:visible;visibility:visible;opacity:1;isolation:auto;mix-blend-mode:normal;color-interpolation:sRGB;color-interpolation-filters:linearRGB;solid-color:#000000;solid-opacity:1;fill:#000000;fill-opacity:1;fill-rule:evenodd;stroke:none;stroke-width:2;stroke-linecap:butt;stroke-linejoin:miter;stroke-miterlimit:4;stroke-dasharray:none;stroke-dashoffset:0;stroke-opacity:1;color-rendering:auto;image-rendering:auto;shape-rendering:auto;text-rendering:auto;enable-background:accumulate"
         id="path4770-8"
         cx="-625.79248"
         cy="2935.8586"
         rx="4.3534598"
         ry="10.448105"
         transform="matrix(-0.36386602,-0.9314513,0.79740484,-0.60344472,0,0)" />
      <path
         style="fill:#000000;fill-opacity:1;fill-rule:evenodd;stroke:#000000;stroke-width:3.84180307px;stroke-linecap:butt;stroke-linejoin:miter;stroke-opacity:1"
         d="m 2585.2928,-1186.2363 c 0,0 6.228,-7.0671 6.8681,-11.3529 0.6402,-4.2855 1.1449,-8.9447 1.1449,-8.9447 l 4.2681,-0.3613 c 0,0 1.1744,6.2474 -0.019,9.0406 -1.1835,2.7931 -12.2716,11.6183 -12.2716,11.6183 z"
         id="path4776-3"
         inkscape:connector-curvature="0" />
      <g
         id="g4416-9-8-6"
         transform="matrix(0.25471648,-2.5990005,5.3690552,-3.6106431,-2944.449,2534.5798)">
        <g
           transform="matrix(1.0873279,0.00996893,-0.00778821,1.3917835,22.652131,-399.51653)"
           id="g3480-3-9-1">
          <rect
             style="color:#000000;clip-rule:nonzero;display:inline;overflow:visible;visibility:visible;opacity:1;isolation:auto;mix-blend-mode:normal;color-interpolation:sRGB;color-interpolation-filters:linearRGB;solid-color:#000000;solid-opacity:1;fill:#000000;fill-opacity:1;fill-rule:evenodd;stroke:none;stroke-width:3.54330707;stroke-linecap:round;stroke-linejoin:miter;stroke-miterlimit:4;stroke-dasharray:none;stroke-dashoffset:0;stroke-opacity:1;color-rendering:auto;image-rendering:auto;shape-rendering:auto;text-rendering:auto;enable-background:accumulate"
             id="rect3410-60-7-0"
             width="35.14151"
             height="10"
             x="5.9660902"
             y="1002.5218" />
          <path
             style="color:#000000;clip-rule:nonzero;display:inline;overflow:visible;visibility:visible;opacity:1;isolation:auto;mix-blend-mode:normal;color-interpolation:sRGB;color-interpolation-filters:linearRGB;solid-color:#000000;solid-opacity:1;fill:#000000;fill-opacity:1;fill-rule:evenodd;stroke:none;stroke-width:3.54330707;stroke-linecap:round;stroke-linejoin:miter;stroke-miterlimit:4;stroke-dasharray:none;stroke-dashoffset:0;stroke-opacity:1;color-rendering:auto;image-rendering:auto;shape-rendering:auto;text-rendering:auto;enable-background:accumulate"
             id="path3412-6-3-6"
             sodipodi:type="arc"
             sodipodi:cx="6.3198633"
             sodipodi:cy="1007.5218"
             sodipodi:rx="3.4198112"
             sodipodi:ry="5"
             sodipodi:start="5.4690067"
             sodipodi:end="5.4501047"
             sodipodi:open="true"
             d="m 8.6674472,1003.886 a 3.4198112,5 0 0 1 0.1502386,7.0509 3.4198112,5 0 0 1 -4.8217995,0.253 3.4198112,5 0 0 1 -0.1958092,-7.0486 3.4198112,5 0 0 1 4.8199488,-0.3195" />
          <rect
             style="color:#000000;clip-rule:nonzero;display:inline;overflow:visible;visibility:visible;opacity:1;isolation:auto;mix-blend-mode:normal;color-interpolation:sRGB;color-interpolation-filters:linearRGB;solid-color:#000000;solid-opacity:1;fill:#666666;fill-opacity:1;fill-rule:evenodd;stroke:none;stroke-width:3.54330707;stroke-linecap:round;stroke-linejoin:miter;stroke-miterlimit:4;stroke-dasharray:none;stroke-dashoffset:0;stroke-opacity:1;color-rendering:auto;image-rendering:auto;shape-rendering:auto;text-rendering:auto;enable-background:accumulate"
             id="rect3410-6-3-5-2-6-3"
             width="35.14151"
             height="2.4528301"
             x="5.6123157"
             y="1002.4745" />
          <path
             style="color:#000000;clip-rule:nonzero;display:inline;overflow:visible;visibility:visible;opacity:1;isolation:auto;mix-blend-mode:normal;color-interpolation:sRGB;color-interpolation-filters:linearRGB;solid-color:#000000;solid-opacity:1;fill:#aa0000;fill-opacity:1;fill-rule:evenodd;stroke:none;stroke-width:3.54330707;stroke-linecap:round;stroke-linejoin:miter;stroke-miterlimit:4;stroke-dasharray:none;stroke-dashoffset:0;stroke-opacity:1;color-rendering:auto;image-rendering:auto;shape-rendering:auto;text-rendering:auto;enable-background:accumulate"
             id="path3412-3-6-1-2"
             sodipodi:type="arc"
             sodipodi:cx="40.664204"
             sodipodi:cy="1007.5218"
             sodipodi:rx="3.4198112"
             sodipodi:ry="5"
             sodipodi:start="5.4690067"
             sodipodi:end="5.4501047"
             sodipodi:open="true"
             d="m 43.011787,1003.886 a 3.4198112,5 0 0 1 0.150239,7.0509 3.4198112,5 0 0 1 -4.821799,0.253 3.4198112,5 0 0 1 -0.19581,-7.0486 3.4198112,5 0 0 1 4.819949,-0.3195" />
          <path
             inkscape:connector-curvature="0"
             id="path3412-3-5-9-0-1-2-0"
             d="m 7.8610056,1002.5057 c -1.096653,0.088 -1.945081,0.8808 -2.461672,1.8953 -1.033184,2.0293 -0.989859,4.6508 0.172911,6.586 0.581385,0.9676 1.553547,1.6836 2.652068,1.6145 0.239542,-0.015 0.465555,-0.07 0.681519,-0.1481 a 3.4198113,5 0 0 1 -1.259709,-1.0771 3.4198113,5 0 0 1 -0.19419,-7.0489 3.4198113,5 0 0 1 1.746069,-1.4902 c -0.404081,-0.2376 -0.852973,-0.3702 -1.336996,-0.3315 z"
             style="color:#000000;font-style:normal;font-variant:normal;font-weight:normal;font-stretch:normal;font-size:medium;line-height:normal;font-family:sans-serif;text-indent:0;text-align:start;text-decoration:none;text-decoration-line:none;text-decoration-style:solid;text-decoration-color:#000000;letter-spacing:normal;word-spacing:normal;text-transform:none;direction:ltr;block-progression:tb;writing-mode:lr-tb;baseline-shift:baseline;text-anchor:start;white-space:normal;clip-rule:nonzero;display:inline;overflow:visible;visibility:visible;opacity:1;isolation:auto;mix-blend-mode:normal;color-interpolation:sRGB;color-interpolation-filters:linearRGB;solid-color:#000000;solid-opacity:1;fill:#ff0000;fill-opacity:1;fill-rule:evenodd;stroke:none;stroke-width:2.44747305;stroke-linecap:round;stroke-linejoin:miter;stroke-miterlimit:4;stroke-dasharray:none;stroke-dashoffset:0;stroke-opacity:1;color-rendering:auto;image-rendering:auto;shape-rendering:auto;text-rendering:auto;enable-background:accumulate" />
          <rect
             style="color:#000000;clip-rule:nonzero;display:inline;overflow:visible;visibility:visible;opacity:1;isolation:auto;mix-blend-mode:normal;color-interpolation:sRGB;color-interpolation-filters:linearRGB;solid-color:#000000;solid-opacity:1;fill:#000000;fill-opacity:1;fill-rule:evenodd;stroke:none;stroke-width:3.54330707;stroke-linecap:round;stroke-linejoin:miter;stroke-miterlimit:4;stroke-dasharray:none;stroke-dashoffset:0;stroke-opacity:1;color-rendering:auto;image-rendering:auto;shape-rendering:auto;text-rendering:auto;enable-background:accumulate"
             id="rect3410-6-8-9-6"
             width="35.14151"
             height="10"
             x="-1.4183437"
             y="1006.7199" />
          <path
             style="color:#000000;clip-rule:nonzero;display:inline;overflow:visible;visibility:visible;opacity:1;isolation:auto;mix-blend-mode:normal;color-interpolation:sRGB;color-interpolation-filters:linearRGB;solid-color:#000000;solid-opacity:1;fill:#000000;fill-opacity:1;fill-rule:evenodd;stroke:none;stroke-width:3.54330707;stroke-linecap:round;stroke-linejoin:miter;stroke-miterlimit:4;stroke-dasharray:none;stroke-dashoffset:0;stroke-opacity:1;color-rendering:auto;image-rendering:auto;shape-rendering:auto;text-rendering:auto;enable-background:accumulate"
             id="path3412-7-7-3-1"
             sodipodi:type="arc"
             sodipodi:cx="-1.0645705"
             sodipodi:cy="1011.7199"
             sodipodi:rx="3.4198112"
             sodipodi:ry="5"
             sodipodi:start="5.4690067"
             sodipodi:end="5.4501047"
             sodipodi:open="true"
             d="m 1.2830133,1008.0841 a 3.4198112,5 0 0 1 0.1502386,7.0509 3.4198112,5 0 0 1 -4.8217995,0.253 3.4198112,5 0 0 1 -0.1958092,-7.0485 3.4198112,5 0 0 1 4.8199489,-0.3196" />
          <rect
             style="color:#000000;clip-rule:nonzero;display:inline;overflow:visible;visibility:visible;opacity:1;isolation:auto;mix-blend-mode:normal;color-interpolation:sRGB;color-interpolation-filters:linearRGB;solid-color:#000000;solid-opacity:1;fill:#666666;fill-opacity:1;fill-rule:evenodd;stroke:none;stroke-width:3.54330707;stroke-linecap:round;stroke-linejoin:miter;stroke-miterlimit:4;stroke-dasharray:none;stroke-dashoffset:0;stroke-opacity:1;color-rendering:auto;image-rendering:auto;shape-rendering:auto;text-rendering:auto;enable-background:accumulate"
             id="rect3410-6-3-9-1-5"
             width="35.14151"
             height="2.4528301"
             x="-1.4183437"
             y="1006.7199" />
          <path
             inkscape:connector-curvature="0"
             id="path3412-3-5-9-7-2-9-5"
             d="m 36.709349,1002.4652 c -1.096653,0.088 -1.945081,0.8808 -2.461672,1.8953 -1.033184,2.0293 -0.989859,4.6508 0.172911,6.586 0.581385,0.9676 1.553547,1.6836 2.652068,1.6145 0.239542,-0.015 0.465555,-0.07 0.681519,-0.1481 a 3.4198113,5 0 0 1 -1.259709,-1.0771 3.4198113,5 0 0 1 -0.19419,-7.0489 3.4198113,5 0 0 1 1.746069,-1.4902 c -0.404081,-0.2376 -0.852973,-0.3702 -1.336996,-0.3315 z"
             style="color:#000000;font-style:normal;font-variant:normal;font-weight:normal;font-stretch:normal;font-size:medium;line-height:normal;font-family:sans-serif;text-indent:0;text-align:start;text-decoration:none;text-decoration-line:none;text-decoration-style:solid;text-decoration-color:#000000;letter-spacing:normal;word-spacing:normal;text-transform:none;direction:ltr;block-progression:tb;writing-mode:lr-tb;baseline-shift:baseline;text-anchor:start;white-space:normal;clip-rule:nonzero;display:inline;overflow:visible;visibility:visible;opacity:1;isolation:auto;mix-blend-mode:normal;color-interpolation:sRGB;color-interpolation-filters:linearRGB;solid-color:#000000;solid-opacity:1;fill:#ff0000;fill-opacity:1;fill-rule:evenodd;stroke:none;stroke-width:2.44747305;stroke-linecap:round;stroke-linejoin:miter;stroke-miterlimit:4;stroke-dasharray:none;stroke-dashoffset:0;stroke-opacity:1;color-rendering:auto;image-rendering:auto;shape-rendering:auto;text-rendering:auto;enable-background:accumulate" />
          <path
             style="color:#000000;clip-rule:nonzero;display:inline;overflow:visible;visibility:visible;opacity:1;isolation:auto;mix-blend-mode:normal;color-interpolation:sRGB;color-interpolation-filters:linearRGB;solid-color:#000000;solid-opacity:1;fill:#aa0000;fill-opacity:1;fill-rule:evenodd;stroke:none;stroke-width:3.54330707;stroke-linecap:round;stroke-linejoin:miter;stroke-miterlimit:4;stroke-dasharray:none;stroke-dashoffset:0;stroke-opacity:1;color-rendering:auto;image-rendering:auto;shape-rendering:auto;text-rendering:auto;enable-background:accumulate"
             id="path3412-3-5-0-4-4"
             sodipodi:type="arc"
             sodipodi:cx="33.27977"
             sodipodi:cy="1011.7199"
             sodipodi:rx="3.4198112"
             sodipodi:ry="5"
             sodipodi:start="5.4690067"
             sodipodi:end="5.4501047"
             sodipodi:open="true"
             d="m 35.627354,1008.0841 a 3.4198112,5 0 0 1 0.150238,7.0509 3.4198112,5 0 0 1 -4.821799,0.253 3.4198112,5 0 0 1 -0.195809,-7.0485 3.4198112,5 0 0 1 4.819948,-0.3196" />
          <path
             inkscape:connector-curvature="0"
             id="path3412-3-5-9-23-7-7"
             d="m 29.330564,1006.5308 c -1.096653,0.088 -1.945081,0.8808 -2.461672,1.8953 -1.033184,2.0293 -0.989859,4.6508 0.172911,6.586 0.581385,0.9676 1.553547,1.6836 2.652068,1.6145 0.239542,-0.015 0.465555,-0.07 0.681519,-0.1481 a 3.4198113,5 0 0 1 -1.259709,-1.0771 3.4198113,5 0 0 1 -0.19419,-7.0489 3.4198113,5 0 0 1 1.746069,-1.4902 c -0.404081,-0.2376 -0.852973,-0.3702 -1.336996,-0.3315 z"
             style="color:#000000;font-style:normal;font-variant:normal;font-weight:normal;font-stretch:normal;font-size:medium;line-height:normal;font-family:sans-serif;text-indent:0;text-align:start;text-decoration:none;text-decoration-line:none;text-decoration-style:solid;text-decoration-color:#000000;letter-spacing:normal;word-spacing:normal;text-transform:none;direction:ltr;block-progression:tb;writing-mode:lr-tb;baseline-shift:baseline;text-anchor:start;white-space:normal;clip-rule:nonzero;display:inline;overflow:visible;visibility:visible;opacity:1;isolation:auto;mix-blend-mode:normal;color-interpolation:sRGB;color-interpolation-filters:linearRGB;solid-color:#000000;solid-opacity:1;fill:#ff0000;fill-opacity:1;fill-rule:evenodd;stroke:none;stroke-width:2.44747305;stroke-linecap:round;stroke-linejoin:miter;stroke-miterlimit:4;stroke-dasharray:none;stroke-dashoffset:0;stroke-opacity:1;color-rendering:auto;image-rendering:auto;shape-rendering:auto;text-rendering:auto;enable-background:accumulate" />
          <path
             inkscape:connector-curvature="0"
             id="path3412-3-5-9-2-7-8-6"
             d="m 0.62404941,1006.6144 c -1.09665298,0.088 -1.94508101,0.8808 -2.46167201,1.8953 -1.033184,2.0293 -0.989859,4.6508 0.172911,6.586 0.581385,0.9676 1.55354703,1.6836 2.65206801,1.6145 0.23954199,-0.015 0.46555499,-0.07 0.68151899,-0.1481 a 3.4198113,5 0 0 1 -1.25970897,-1.0771 3.4198113,5 0 0 1 -0.19419,-7.0489 3.4198113,5 0 0 1 1.74606897,-1.4902 c -0.404081,-0.2376 -0.852973,-0.3702 -1.33699599,-0.3315 z"
             style="color:#000000;font-style:normal;font-variant:normal;font-weight:normal;font-stretch:normal;font-size:medium;line-height:normal;font-family:sans-serif;text-indent:0;text-align:start;text-decoration:none;text-decoration-line:none;text-decoration-style:solid;text-decoration-color:#000000;letter-spacing:normal;word-spacing:normal;text-transform:none;direction:ltr;block-progression:tb;writing-mode:lr-tb;baseline-shift:baseline;text-anchor:start;white-space:normal;clip-rule:nonzero;display:inline;overflow:visible;visibility:visible;opacity:1;isolation:auto;mix-blend-mode:normal;color-interpolation:sRGB;color-interpolation-filters:linearRGB;solid-color:#000000;solid-opacity:1;fill:#ff0000;fill-opacity:1;fill-rule:evenodd;stroke:none;stroke-width:2.44747305;stroke-linecap:round;stroke-linejoin:miter;stroke-miterlimit:4;stroke-dasharray:none;stroke-dashoffset:0;stroke-opacity:1;color-rendering:auto;image-rendering:auto;shape-rendering:auto;text-rendering:auto;enable-background:accumulate" />
        </g>
        <text
           sodipodi:linespacing="125%"
           id="text3490-5-4-5"
           y="1013.267"
           x="24.367031"
           style="font-style:normal;font-weight:normal;font-size:45px;line-height:125%;font-family:sans-serif;text-align:end;letter-spacing:0px;word-spacing:0px;text-anchor:end;fill:#000000;fill-opacity:1;stroke:none;stroke-width:1px;stroke-linecap:butt;stroke-linejoin:miter;stroke-opacity:1"
           xml:space="preserve"><tspan
             style="font-size:13.75px;fill:#ffff00"
             y="1013.267"
             x="24.367031"
             id="tspan3492-9-5-6"
             sodipodi:role="line">+</tspan></text>
        <text
           sodipodi:linespacing="125%"
           id="text3490-6-2-0-9"
           y="1012.7614"
           x="42.509609"
           style="font-style:normal;font-weight:normal;font-size:45px;line-height:125%;font-family:sans-serif;text-align:end;letter-spacing:0px;word-spacing:0px;text-anchor:end;fill:#000000;fill-opacity:1;stroke:none;stroke-width:1px;stroke-linecap:butt;stroke-linejoin:miter;stroke-opacity:1"
           xml:space="preserve"><tspan
             style="font-size:13.75px;fill:#ffff00"
             y="1012.7614"
             x="42.509609"
             id="tspan3492-2-2-3-3"
             sodipodi:role="line">-</tspan></text>
      </g>
      <path
         style="fill:#000000;fill-rule:evenodd;stroke:#000000;stroke-width:3.61033058px;stroke-linecap:butt;stroke-linejoin:miter;stroke-opacity:1"
         d="m 2453.726,-1240.8222 c 0,0 32.7943,-22.4062 -15.8046,-30.57 -48.5989,-8.164 -9.9786,-42.865 -11.7295,-59.7167 -1.7509,-16.8518 -19.1439,-58.9095 -19.1439,-58.9095 l 42.4865,51.8836 c 0,0 4.7257,-7.6903 17.8031,-26.1562 13.0775,-18.466 8.0263,-21.5039 -4.7647,-34.4629 -12.7907,-12.9589 15.8896,-48.372 15.8896,-48.372 0,0 8.0651,20.6493 8.3905,31.3773 0.3254,10.7283 35.1961,15.9018 6.6784,56.6788 -28.5178,40.7771 -15.4016,64.4641 -2.1614,51.3621 13.2402,-13.1018 19.3526,-56.8215 19.3526,-56.8215 0,0 21.7934,23.6395 12.5044,44.3841 -9.289,20.7443 -69.501,79.3229 -69.501,79.3229 z"
         id="path7017-4"
         inkscape:connector-curvature="0" />
      <path
         style="fill:#ffff00;fill-rule:evenodd;stroke:#000000;stroke-width:3.61033058px;stroke-linecap:butt;stroke-linejoin:miter;stroke-opacity:1"
         d="m 2482.0495,-1241.088 c 0,0 32.7942,-22.4062 -15.8047,-30.5701 -48.5988,-8.1639 -9.9785,-42.8649 -11.7294,-59.7167 -1.751,-16.8517 -19.1439,-58.9094 -19.1439,-58.9094 l 42.4863,51.8836 c 0,0 4.7258,-7.6903 17.8033,-26.1562 13.0774,-18.466 8.0263,-21.5039 -4.7647,-34.4629 -12.7908,-12.9589 15.8896,-48.3721 15.8896,-48.3721 0,0 8.0649,20.6493 8.3904,31.3775 0.3255,10.7282 35.1962,15.9016 6.6783,56.6786 -28.5176,40.7771 -15.4014,64.4641 -2.1612,51.3622 13.2401,-13.1017 19.3526,-56.8216 19.3526,-56.8216 0,0 21.7933,23.6396 12.5043,44.3841 -9.2891,20.7445 -69.5009,79.323 -69.5009,79.323 z"
         id="path7017"
         inkscape:connector-curvature="0" />
    </g>
  </g>
</svg>
