<?xml version="1.0" encoding="UTF-8" standalone="no"?>
<!-- Created with Inkscape (http://www.inkscape.org/) -->

<svg
   xmlns:dc="http://purl.org/dc/elements/1.1/"
   xmlns:cc="http://creativecommons.org/ns#"
   xmlns:rdf="http://www.w3.org/1999/02/22-rdf-syntax-ns#"
   xmlns:svg="http://www.w3.org/2000/svg"
   xmlns="http://www.w3.org/2000/svg"
   xmlns:sodipodi="http://sodipodi.sourceforge.net/DTD/sodipodi-0.dtd"
   xmlns:inkscape="http://www.inkscape.org/namespaces/inkscape"
   width="800"
   height="600"
   viewBox="0 0 799.99999 600.00002"
   id="svg4327"
   version="1.1"
   inkscape:version="0.91 r13725"
   sodipodi:docname="bg_win.svg"
   inkscape:export-filename="/home/ali/repos/gglyptodon/ld39/assets/img/bg_win.png"
   inkscape:export-xdpi="90"
   inkscape:export-ydpi="90">
  <defs
     id="defs4329" />
  <sodipodi:namedview
     id="base"
     pagecolor="#ffffff"
     bordercolor="#666666"
     borderopacity="1.0"
     inkscape:pageopacity="0.0"
     inkscape:pageshadow="2"
     inkscape:zoom="0.49497475"
     inkscape:cx="134.63384"
     inkscape:cy="334.51558"
     inkscape:document-units="px"
     inkscape:current-layer="layer1"
     showgrid="false"
     units="px"
     inkscape:window-width="1366"
     inkscape:window-height="720"
     inkscape:window-x="0"
     inkscape:window-y="0"
     inkscape:window-maximized="1" />
  <metadata
     id="metadata4332">
    <rdf:RDF>
      <cc:Work
         rdf:about="">
        <dc:format>image/svg+xml</dc:format>
        <dc:type
           rdf:resource="http://purl.org/dc/dcmitype/StillImage" />
        <dc:title></dc:title>
      </cc:Work>
    </rdf:RDF>
  </metadata>
  <g
     inkscape:label="Layer 1"
     inkscape:groupmode="layer"
     id="layer1"
     transform="translate(0,-452.36213)">
    <path
       style="fill:#333333;fill-rule:evenodd;stroke:none;stroke-width:10.38029575px;stroke-linecap:butt;stroke-linejoin:miter;stroke-opacity:1"
       d="m 84.055618,741.43482 0.303459,0.8318 c -4.144263,0.58079 -7.282363,2.83994 -8.976505,6.46227 -1.575706,3.40322 -1.811322,7.84685 -0.677833,12.7837 L 65.0411,760.37413 c -1.908837,-0.66649 -3.825833,-1.09498 -5.706264,-1.19901 -1.192428,-0.0657 -2.290676,-0.01 -3.312857,0.13687 l -9.826656,-1.1582 0.0603,0.16452 c -5.186062,0.0131 -9.145237,2.36444 -11.131393,6.61099 -4.460569,9.59113 2.094206,26.07948 14.665838,36.89151 4.942027,4.24299 10.324506,7.15463 15.340275,8.29828 l 0.05861,0.16189 39.682057,4.67626 c -3.47408,3.06298 -6.187941,6.25995 -8.045891,9.47491 -7.009602,12.12982 6.077601,26.97173 6.077601,26.97173 0,0 25.19836,4.59216 47.58914,11.58865 l -16.09048,-2.0624 45.33274,27.55084 c 0,0 60.5852,17.63432 115.51528,17.35204 36.94895,-0.18961 50.78584,-7.69404 55.89336,-12.59023 35.14687,-2.44466 57.0538,-7.68548 44.60634,-12.40992 -22.7635,-6.10557 -52.57437,-29.78129 -90.25394,-51.10191 1.28503,-3.26057 1.43061,-7.36791 0.42152,-11.89267 0.93606,0.19286 1.86846,0.32885 2.78794,0.39221 0.63291,0.0437 1.23079,0.0414 1.81172,0.0171 l 24.46922,2.88368 -0.0845,-0.23297 c 2.39107,-0.0974 4.5209,-0.70907 6.2966,-1.80838 2.26021,0.26973 4.54513,0.55027 6.85959,0.84629 27.4649,3.51267 58.29162,9.12359 79.60409,16.8282 l 4.92817,1.93079 0.0161,-0.0329 c 3.50582,1.43113 6.68909,2.92541 9.45315,4.48936 20.19842,11.42856 56.47287,30.46127 78.0772,45.41462 10.8022,7.4767 21.3836,13.32724 31.35638,14.08931 4.98637,0.38101 9.37031,-0.65558 12.92954,-3.10609 3.55923,-2.45051 6.44,-6.30953 8.7394,-11.86899 5.98105,-14.46074 37.77584,-39.26278 53.70205,-40.7411 7.96309,-0.73917 15.95208,-0.61629 22.7174,-0.37774 6.76532,0.23855 12.14773,0.65756 15.72775,0.25533 15.73548,-1.76795 29.87324,-25.75319 29.51674,-31.37525 -6.9446,-24.73992 -19.72294,25.98082 -32.79322,27.61108 -2.08022,0.23377 -7.67739,-0.0512 -14.58111,-0.29481 -6.9036,-0.2434 -15.274,-0.38127 -23.73379,0.40405 -16.91965,1.57051 -50.22414,26.95415 -56.57704,42.3139 -2.20889,5.34072 -4.96118,8.89098 -7.97502,10.96611 -3.01391,2.07504 -6.14187,2.68153 -9.4219,2.43092 -6.5601,-0.50129 -15.52756,-5.01234 -25.8028,-12.12432 -20.55043,-14.22389 -56.54896,-33.28136 -78.85347,-45.90158 -5.43681,-3.07623 -11.85445,-5.82265 -18.93512,-8.28776 l -80.06532,-31.3716 c -1.99069,-8.30747 -7.6177,-17.12424 -15.06599,-23.60636 l -0.43073,-0.37115 c -4.67744,-3.96541 -9.73883,-6.74109 -14.50535,-7.95477 l -0.0924,-0.25138 -2.31096,-0.27244 -0.089,-0.24612 -23.73789,-2.79681 c -0.90434,-0.18565 -1.80511,-0.31517 -2.698,-0.36457 -0.16337,-0.009 -0.3168,-0.005 -0.47742,-0.0105 z m 262.665272,63.6158 49.17917,19.26966 c -16.02958,-3.46265 -33.10529,-6.07043 -49.08376,-8.11402 -0.76546,-0.0979 -1.51189,-0.18664 -2.27194,-0.28166 0.31342,-0.46269 0.59675,-0.95411 0.84913,-1.47276 1.23458,-2.58575 1.68817,-5.7983 1.3274,-9.40122 z"
       id="path4701-9"
       inkscape:connector-curvature="0"
       sodipodi:nodetypes="cccccccccccccccccccscccccccccscccsssssssscccscccssccccccccccccccsccc"
       inkscape:export-xdpi="90"
       inkscape:export-ydpi="90" />
    <path
       style="fill:#00ff00;fill-rule:evenodd;stroke:#000000;stroke-width:10.38029575px;stroke-linecap:butt;stroke-linejoin:miter;stroke-opacity:1"
       d="m 169.67519,826.65511 27.71361,40.88298 c 0,0 49.30717,26.16964 104.41778,25.75077 55.11061,-0.4183 69.51353,-24.84464 69.51353,-24.84464 z"
       id="path4701"
       inkscape:connector-curvature="0"
       sodipodi:nodetypes="ccccc" />
    <path
       style="fill:#008000;fill-rule:evenodd;stroke:#000000;stroke-width:10.38029575px;stroke-linecap:butt;stroke-linejoin:miter;stroke-opacity:1"
       d="m 144.26946,812.5172 c 0,0 -3.59623,-22.02567 11.17087,-40.02604 22.58749,-27.53251 72.76415,-54.27532 124.02264,-45.99585 84.77014,13.69418 105.0714,113.47467 138.83042,129.69391 16.42776,12.21882 -72.42447,26.7869 -143.81812,17.60639 -40.36323,-5.19199 -61.64263,-25.9424 -85.60862,-41.39796 -18.42462,-11.88249 -44.59719,-19.88045 -44.59719,-19.88045 z"
       id="path4699"
       inkscape:connector-curvature="0"
       sodipodi:nodetypes="cscccsc" />
    <path
       style="fill:#112b00;fill-rule:evenodd;stroke:#000000;stroke-width:5.65267706px;stroke-linecap:butt;stroke-linejoin:miter;stroke-opacity:1"
       d="m 217.88134,795.06512 -17.33134,26.66367 26.66357,22.66385 c 0,0 11.99859,-25.33021 10.66542,-30.66294 -1.33313,-5.33275 -19.99765,-18.66458 -19.99765,-18.66458 z"
       id="path4746"
       inkscape:connector-curvature="0" />
    <path
       style="fill:#112b00;fill-rule:evenodd;stroke:#000000;stroke-width:5.65267706px;stroke-linecap:butt;stroke-linejoin:miter;stroke-opacity:1"
       d="m 259.20987,828.39444 30.66312,-6.66565 -5.33274,37.3286 -37.32897,-10.66548 z"
       id="path4748"
       inkscape:connector-curvature="0" />
    <path
       style="fill:#112b00;fill-rule:evenodd;stroke:#000000;stroke-width:5.65267706px;stroke-linecap:butt;stroke-linejoin:miter;stroke-opacity:1"
       d="m 308.53745,828.39444 -1.33312,30.66295 37.32897,1.33346 -5.33273,-27.99658 z"
       id="path4750"
       inkscape:connector-curvature="0" />
    <path
       style="fill:#112b00;fill-rule:evenodd;stroke:#000000;stroke-width:5.65267706px;stroke-linecap:butt;stroke-linejoin:miter;stroke-opacity:1"
       d="m 373.86323,820.39589 -19.99769,14.66474 3.99954,21.33039 33.32949,-1.33348 z"
       id="path4752"
       inkscape:connector-curvature="0"
       sodipodi:nodetypes="ccccc" />
    <path
       style="fill:#112b00;fill-rule:evenodd;stroke:#000000;stroke-width:5.65267706px;stroke-linecap:butt;stroke-linejoin:miter;stroke-opacity:1"
       d="m 257.87669,724.40665 6.66591,15.99821 39.99535,14.66474 25.33039,-7.99911 -37.32898,-19.99747 z"
       id="path4756"
       inkscape:connector-curvature="0"
       sodipodi:nodetypes="cccccc" />
    <path
       style="fill:#112b00;fill-rule:evenodd;stroke:#000000;stroke-width:5.65267706px;stroke-linecap:butt;stroke-linejoin:miter;stroke-opacity:1"
       d="m 185.88503,815.0626 23.9972,-29.33005 -13.33178,-10.66548 -30.66307,33.32988 z"
       id="path4758"
       inkscape:connector-curvature="0" />
    <path
       style="fill:#112b00;fill-rule:evenodd;stroke:#000000;stroke-width:5.65267706px;stroke-linecap:butt;stroke-linejoin:miter;stroke-opacity:1"
       d="m 183.21867,768.40144 -25.33038,26.66368 -9.33223,-13.33184 21.33082,-22.66385 z"
       id="path4760"
       inkscape:connector-curvature="0" />
    <path
       style="fill:#112b00;fill-rule:evenodd;stroke:#000000;stroke-width:5.65267706px;stroke-linecap:butt;stroke-linejoin:miter;stroke-opacity:1"
       d="m 183.21867,747.07105 31.99629,21.33039 31.99632,-26.66368 -14.66498,-14.66474 -27.99674,7.99911 z"
       id="path4762"
       inkscape:connector-curvature="0"
       sodipodi:nodetypes="cccccc" />
    <path
       style="fill:#112b00;fill-rule:evenodd;stroke:#000000;stroke-width:5.65267706px;stroke-linecap:butt;stroke-linejoin:miter;stroke-opacity:1"
       d="m 249.87764,801.73075 -17.33134,-22.66385 29.32993,-26.66367 30.66313,17.33168 -2.66637,34.66221 z"
       id="path4764"
       inkscape:connector-curvature="0" />
    <path
       style="fill:#112b00;fill-rule:evenodd;stroke:#000000;stroke-width:5.65267706px;stroke-linecap:butt;stroke-linejoin:miter;stroke-opacity:1"
       d="m 343.20012,761.73579 -33.32948,11.99838 -2.66631,34.66278 34.6626,10.66548 26.66357,-21.33094 z"
       id="path4766"
       inkscape:connector-curvature="0"
       sodipodi:nodetypes="cccccc" />
    <g
       id="g4416"
       transform="matrix(5.5636038,0.99953711,-0.99953711,5.5636038,1074.5152,-4911.6631)">
      <g
         transform="matrix(1.0873279,0.00996893,-0.00778821,1.3917835,22.652131,-399.51653)"
         id="g3480">
        <rect
           style="color:#000000;clip-rule:nonzero;display:inline;overflow:visible;visibility:visible;opacity:1;isolation:auto;mix-blend-mode:normal;color-interpolation:sRGB;color-interpolation-filters:linearRGB;solid-color:#000000;solid-opacity:1;fill:#000000;fill-opacity:1;fill-rule:evenodd;stroke:none;stroke-width:3.54330707;stroke-linecap:round;stroke-linejoin:miter;stroke-miterlimit:4;stroke-dasharray:none;stroke-dashoffset:0;stroke-opacity:1;color-rendering:auto;image-rendering:auto;shape-rendering:auto;text-rendering:auto;enable-background:accumulate"
           id="rect3410"
           width="35.14151"
           height="10"
           x="5.9660902"
           y="1002.5218" />
        <path
           style="color:#000000;clip-rule:nonzero;display:inline;overflow:visible;visibility:visible;opacity:1;isolation:auto;mix-blend-mode:normal;color-interpolation:sRGB;color-interpolation-filters:linearRGB;solid-color:#000000;solid-opacity:1;fill:#000000;fill-opacity:1;fill-rule:evenodd;stroke:none;stroke-width:3.54330707;stroke-linecap:round;stroke-linejoin:miter;stroke-miterlimit:4;stroke-dasharray:none;stroke-dashoffset:0;stroke-opacity:1;color-rendering:auto;image-rendering:auto;shape-rendering:auto;text-rendering:auto;enable-background:accumulate"
           id="path3412"
           sodipodi:type="arc"
           sodipodi:cx="6.3198633"
           sodipodi:cy="1007.5218"
           sodipodi:rx="3.4198112"
           sodipodi:ry="5"
           sodipodi:start="5.4690067"
           sodipodi:end="5.4501047"
           sodipodi:open="true"
           d="m 8.6674472,1003.886 a 3.4198112,5 0 0 1 0.1502386,7.0509 3.4198112,5 0 0 1 -4.8217995,0.253 3.4198112,5 0 0 1 -0.1958092,-7.0486 3.4198112,5 0 0 1 4.8199488,-0.3195" />
        <rect
           style="color:#000000;clip-rule:nonzero;display:inline;overflow:visible;visibility:visible;opacity:1;isolation:auto;mix-blend-mode:normal;color-interpolation:sRGB;color-interpolation-filters:linearRGB;solid-color:#000000;solid-opacity:1;fill:#666666;fill-opacity:1;fill-rule:evenodd;stroke:none;stroke-width:3.54330707;stroke-linecap:round;stroke-linejoin:miter;stroke-miterlimit:4;stroke-dasharray:none;stroke-dashoffset:0;stroke-opacity:1;color-rendering:auto;image-rendering:auto;shape-rendering:auto;text-rendering:auto;enable-background:accumulate"
           id="rect3410-6-3-5"
           width="35.14151"
           height="2.4528301"
           x="5.6123157"
           y="1002.4745" />
        <path
           style="color:#000000;clip-rule:nonzero;display:inline;overflow:visible;visibility:visible;opacity:1;isolation:auto;mix-blend-mode:normal;color-interpolation:sRGB;color-interpolation-filters:linearRGB;solid-color:#000000;solid-opacity:1;fill:#aa0000;fill-opacity:1;fill-rule:evenodd;stroke:none;stroke-width:3.54330707;stroke-linecap:round;stroke-linejoin:miter;stroke-miterlimit:4;stroke-dasharray:none;stroke-dashoffset:0;stroke-opacity:1;color-rendering:auto;image-rendering:auto;shape-rendering:auto;text-rendering:auto;enable-background:accumulate"
           id="path3412-3"
           sodipodi:type="arc"
           sodipodi:cx="40.664204"
           sodipodi:cy="1007.5218"
           sodipodi:rx="3.4198112"
           sodipodi:ry="5"
           sodipodi:start="5.4690067"
           sodipodi:end="5.4501047"
           sodipodi:open="true"
           d="m 43.011787,1003.886 a 3.4198112,5 0 0 1 0.150239,7.0509 3.4198112,5 0 0 1 -4.821799,0.253 3.4198112,5 0 0 1 -0.19581,-7.0486 3.4198112,5 0 0 1 4.819949,-0.3195" />
        <path
           inkscape:connector-curvature="0"
           id="path3412-3-5-9-0"
           d="m 7.8610056,1002.5057 c -1.096653,0.088 -1.945081,0.8808 -2.461672,1.8953 -1.033184,2.0293 -0.989859,4.6508 0.172911,6.586 0.581385,0.9676 1.553547,1.6836 2.652068,1.6145 0.239542,-0.015 0.465555,-0.07 0.681519,-0.1481 a 3.4198113,5 0 0 1 -1.259709,-1.0771 3.4198113,5 0 0 1 -0.19419,-7.0489 3.4198113,5 0 0 1 1.746069,-1.4902 c -0.404081,-0.2376 -0.852973,-0.3702 -1.336996,-0.3315 z"
           style="color:#000000;font-style:normal;font-variant:normal;font-weight:normal;font-stretch:normal;font-size:medium;line-height:normal;font-family:sans-serif;text-indent:0;text-align:start;text-decoration:none;text-decoration-line:none;text-decoration-style:solid;text-decoration-color:#000000;letter-spacing:normal;word-spacing:normal;text-transform:none;direction:ltr;block-progression:tb;writing-mode:lr-tb;baseline-shift:baseline;text-anchor:start;white-space:normal;clip-rule:nonzero;display:inline;overflow:visible;visibility:visible;opacity:1;isolation:auto;mix-blend-mode:normal;color-interpolation:sRGB;color-interpolation-filters:linearRGB;solid-color:#000000;solid-opacity:1;fill:#ff0000;fill-opacity:1;fill-rule:evenodd;stroke:none;stroke-width:2.44747305;stroke-linecap:round;stroke-linejoin:miter;stroke-miterlimit:4;stroke-dasharray:none;stroke-dashoffset:0;stroke-opacity:1;color-rendering:auto;image-rendering:auto;shape-rendering:auto;text-rendering:auto;enable-background:accumulate" />
        <rect
           style="color:#000000;clip-rule:nonzero;display:inline;overflow:visible;visibility:visible;opacity:1;isolation:auto;mix-blend-mode:normal;color-interpolation:sRGB;color-interpolation-filters:linearRGB;solid-color:#000000;solid-opacity:1;fill:#000000;fill-opacity:1;fill-rule:evenodd;stroke:none;stroke-width:3.54330707;stroke-linecap:round;stroke-linejoin:miter;stroke-miterlimit:4;stroke-dasharray:none;stroke-dashoffset:0;stroke-opacity:1;color-rendering:auto;image-rendering:auto;shape-rendering:auto;text-rendering:auto;enable-background:accumulate"
           id="rect3410-6"
           width="35.14151"
           height="10"
           x="-1.4183437"
           y="1006.7199" />
        <path
           style="color:#000000;clip-rule:nonzero;display:inline;overflow:visible;visibility:visible;opacity:1;isolation:auto;mix-blend-mode:normal;color-interpolation:sRGB;color-interpolation-filters:linearRGB;solid-color:#000000;solid-opacity:1;fill:#000000;fill-opacity:1;fill-rule:evenodd;stroke:none;stroke-width:3.54330707;stroke-linecap:round;stroke-linejoin:miter;stroke-miterlimit:4;stroke-dasharray:none;stroke-dashoffset:0;stroke-opacity:1;color-rendering:auto;image-rendering:auto;shape-rendering:auto;text-rendering:auto;enable-background:accumulate"
           id="path3412-7"
           sodipodi:type="arc"
           sodipodi:cx="-1.0645705"
           sodipodi:cy="1011.7199"
           sodipodi:rx="3.4198112"
           sodipodi:ry="5"
           sodipodi:start="5.4690067"
           sodipodi:end="5.4501047"
           sodipodi:open="true"
           d="m 1.2830133,1008.0841 a 3.4198112,5 0 0 1 0.1502386,7.0509 3.4198112,5 0 0 1 -4.8217995,0.253 3.4198112,5 0 0 1 -0.1958092,-7.0485 3.4198112,5 0 0 1 4.8199489,-0.3196" />
        <rect
           style="color:#000000;clip-rule:nonzero;display:inline;overflow:visible;visibility:visible;opacity:1;isolation:auto;mix-blend-mode:normal;color-interpolation:sRGB;color-interpolation-filters:linearRGB;solid-color:#000000;solid-opacity:1;fill:#666666;fill-opacity:1;fill-rule:evenodd;stroke:none;stroke-width:3.54330707;stroke-linecap:round;stroke-linejoin:miter;stroke-miterlimit:4;stroke-dasharray:none;stroke-dashoffset:0;stroke-opacity:1;color-rendering:auto;image-rendering:auto;shape-rendering:auto;text-rendering:auto;enable-background:accumulate"
           id="rect3410-6-3"
           width="35.14151"
           height="2.4528301"
           x="-1.4183437"
           y="1006.7199" />
        <path
           inkscape:connector-curvature="0"
           id="path3412-3-5-9-7"
           d="m 36.709349,1002.4652 c -1.096653,0.088 -1.945081,0.8808 -2.461672,1.8953 -1.033184,2.0293 -0.989859,4.6508 0.172911,6.586 0.581385,0.9676 1.553547,1.6836 2.652068,1.6145 0.239542,-0.015 0.465555,-0.07 0.681519,-0.1481 a 3.4198113,5 0 0 1 -1.259709,-1.0771 3.4198113,5 0 0 1 -0.19419,-7.0489 3.4198113,5 0 0 1 1.746069,-1.4902 c -0.404081,-0.2376 -0.852973,-0.3702 -1.336996,-0.3315 z"
           style="color:#000000;font-style:normal;font-variant:normal;font-weight:normal;font-stretch:normal;font-size:medium;line-height:normal;font-family:sans-serif;text-indent:0;text-align:start;text-decoration:none;text-decoration-line:none;text-decoration-style:solid;text-decoration-color:#000000;letter-spacing:normal;word-spacing:normal;text-transform:none;direction:ltr;block-progression:tb;writing-mode:lr-tb;baseline-shift:baseline;text-anchor:start;white-space:normal;clip-rule:nonzero;display:inline;overflow:visible;visibility:visible;opacity:1;isolation:auto;mix-blend-mode:normal;color-interpolation:sRGB;color-interpolation-filters:linearRGB;solid-color:#000000;solid-opacity:1;fill:#ff0000;fill-opacity:1;fill-rule:evenodd;stroke:none;stroke-width:2.44747305;stroke-linecap:round;stroke-linejoin:miter;stroke-miterlimit:4;stroke-dasharray:none;stroke-dashoffset:0;stroke-opacity:1;color-rendering:auto;image-rendering:auto;shape-rendering:auto;text-rendering:auto;enable-background:accumulate" />
        <path
           style="color:#000000;clip-rule:nonzero;display:inline;overflow:visible;visibility:visible;opacity:1;isolation:auto;mix-blend-mode:normal;color-interpolation:sRGB;color-interpolation-filters:linearRGB;solid-color:#000000;solid-opacity:1;fill:#aa0000;fill-opacity:1;fill-rule:evenodd;stroke:none;stroke-width:3.54330707;stroke-linecap:round;stroke-linejoin:miter;stroke-miterlimit:4;stroke-dasharray:none;stroke-dashoffset:0;stroke-opacity:1;color-rendering:auto;image-rendering:auto;shape-rendering:auto;text-rendering:auto;enable-background:accumulate"
           id="path3412-3-5"
           sodipodi:type="arc"
           sodipodi:cx="33.27977"
           sodipodi:cy="1011.7199"
           sodipodi:rx="3.4198112"
           sodipodi:ry="5"
           sodipodi:start="5.4690067"
           sodipodi:end="5.4501047"
           sodipodi:open="true"
           d="m 35.627354,1008.0841 a 3.4198112,5 0 0 1 0.150238,7.0509 3.4198112,5 0 0 1 -4.821799,0.253 3.4198112,5 0 0 1 -0.195809,-7.0485 3.4198112,5 0 0 1 4.819948,-0.3196" />
        <path
           inkscape:connector-curvature="0"
           id="path3412-3-5-9"
           d="m 29.330564,1006.5308 c -1.096653,0.088 -1.945081,0.8808 -2.461672,1.8953 -1.033184,2.0293 -0.989859,4.6508 0.172911,6.586 0.581385,0.9676 1.553547,1.6836 2.652068,1.6145 0.239542,-0.015 0.465555,-0.07 0.681519,-0.1481 a 3.4198113,5 0 0 1 -1.259709,-1.0771 3.4198113,5 0 0 1 -0.19419,-7.0489 3.4198113,5 0 0 1 1.746069,-1.4902 c -0.404081,-0.2376 -0.852973,-0.3702 -1.336996,-0.3315 z"
           style="color:#000000;font-style:normal;font-variant:normal;font-weight:normal;font-stretch:normal;font-size:medium;line-height:normal;font-family:sans-serif;text-indent:0;text-align:start;text-decoration:none;text-decoration-line:none;text-decoration-style:solid;text-decoration-color:#000000;letter-spacing:normal;word-spacing:normal;text-transform:none;direction:ltr;block-progression:tb;writing-mode:lr-tb;baseline-shift:baseline;text-anchor:start;white-space:normal;clip-rule:nonzero;display:inline;overflow:visible;visibility:visible;opacity:1;isolation:auto;mix-blend-mode:normal;color-interpolation:sRGB;color-interpolation-filters:linearRGB;solid-color:#000000;solid-opacity:1;fill:#ff0000;fill-opacity:1;fill-rule:evenodd;stroke:none;stroke-width:2.44747305;stroke-linecap:round;stroke-linejoin:miter;stroke-miterlimit:4;stroke-dasharray:none;stroke-dashoffset:0;stroke-opacity:1;color-rendering:auto;image-rendering:auto;shape-rendering:auto;text-rendering:auto;enable-background:accumulate" />
        <path
           inkscape:connector-curvature="0"
           id="path3412-3-5-9-2"
           d="m 0.62404941,1006.6144 c -1.09665298,0.088 -1.94508101,0.8808 -2.46167201,1.8953 -1.033184,2.0293 -0.989859,4.6508 0.172911,6.586 0.581385,0.9676 1.55354703,1.6836 2.65206801,1.6145 0.23954199,-0.015 0.46555499,-0.07 0.68151899,-0.1481 a 3.4198113,5 0 0 1 -1.25970897,-1.0771 3.4198113,5 0 0 1 -0.19419,-7.0489 3.4198113,5 0 0 1 1.74606897,-1.4902 c -0.404081,-0.2376 -0.852973,-0.3702 -1.33699599,-0.3315 z"
           style="color:#000000;font-style:normal;font-variant:normal;font-weight:normal;font-stretch:normal;font-size:medium;line-height:normal;font-family:sans-serif;text-indent:0;text-align:start;text-decoration:none;text-decoration-line:none;text-decoration-style:solid;text-decoration-color:#000000;letter-spacing:normal;word-spacing:normal;text-transform:none;direction:ltr;block-progression:tb;writing-mode:lr-tb;baseline-shift:baseline;text-anchor:start;white-space:normal;clip-rule:nonzero;display:inline;overflow:visible;visibility:visible;opacity:1;isolation:auto;mix-blend-mode:normal;color-interpolation:sRGB;color-interpolation-filters:linearRGB;solid-color:#000000;solid-opacity:1;fill:#ff0000;fill-opacity:1;fill-rule:evenodd;stroke:none;stroke-width:2.44747305;stroke-linecap:round;stroke-linejoin:miter;stroke-miterlimit:4;stroke-dasharray:none;stroke-dashoffset:0;stroke-opacity:1;color-rendering:auto;image-rendering:auto;shape-rendering:auto;text-rendering:auto;enable-background:accumulate" />
      </g>
      <text
         sodipodi:linespacing="125%"
         id="text3490"
         y="1013.267"
         x="24.367031"
         style="font-style:normal;font-weight:normal;font-size:45px;line-height:125%;font-family:sans-serif;text-align:end;letter-spacing:0px;word-spacing:0px;text-anchor:end;fill:#000000;fill-opacity:1;stroke:none;stroke-width:1px;stroke-linecap:butt;stroke-linejoin:miter;stroke-opacity:1"
         xml:space="preserve"><tspan
           style="font-size:13.75px;fill:#ffff00"
           y="1013.267"
           x="24.367031"
           id="tspan3492"
           sodipodi:role="line">+</tspan></text>
      <text
         sodipodi:linespacing="125%"
         id="text3490-6"
         y="1012.7614"
         x="42.509609"
         style="font-style:normal;font-weight:normal;font-size:45px;line-height:125%;font-family:sans-serif;text-align:end;letter-spacing:0px;word-spacing:0px;text-anchor:end;fill:#000000;fill-opacity:1;stroke:none;stroke-width:1px;stroke-linecap:butt;stroke-linejoin:miter;stroke-opacity:1"
         xml:space="preserve"><tspan
           style="font-size:13.75px;fill:#ffff00"
           y="1012.7614"
           x="42.509609"
           id="tspan3492-2"
           sodipodi:role="line">-</tspan></text>
    </g>
    <g
       id="g5089"
       transform="matrix(5.6526774,0,0,5.6526774,-1491.867,-2226.5478)">
      <rect
         y="508.39505"
         x="379.43857"
         height="29.546963"
         width="16.414978"
         id="rect4976"
         style="color:#000000;clip-rule:nonzero;display:inline;overflow:visible;visibility:visible;opacity:1;isolation:auto;mix-blend-mode:normal;color-interpolation:sRGB;color-interpolation-filters:linearRGB;solid-color:#000000;solid-opacity:1;fill:#e3dedb;fill-opacity:1;fill-rule:evenodd;stroke:#c8beb7;stroke-width:1;stroke-linecap:round;stroke-linejoin:miter;stroke-miterlimit:4;stroke-dasharray:none;stroke-dashoffset:0;stroke-opacity:1;color-rendering:auto;image-rendering:auto;shape-rendering:auto;text-rendering:auto;enable-background:accumulate" />
      <ellipse
         ry="4.2931485"
         rx="4.1668792"
         cy="529.60828"
         cx="387.64603"
         id="path4978-6"
         style="color:#000000;clip-rule:nonzero;display:inline;overflow:visible;visibility:visible;opacity:1;isolation:auto;mix-blend-mode:normal;color-interpolation:sRGB;color-interpolation-filters:linearRGB;solid-color:#000000;solid-opacity:1;fill:#e3dedb;fill-opacity:1;fill-rule:evenodd;stroke:#c8beb7;stroke-width:1;stroke-linecap:round;stroke-linejoin:miter;stroke-miterlimit:4;stroke-dasharray:none;stroke-dashoffset:0;stroke-opacity:1;color-rendering:auto;image-rendering:auto;shape-rendering:auto;text-rendering:auto;enable-background:accumulate" />
      <ellipse
         ry="0.56821078"
         rx="0.44194174"
         cy="529.8924"
         cx="386.28864"
         id="path4995-5"
         style="color:#000000;clip-rule:nonzero;display:inline;overflow:visible;visibility:visible;opacity:1;isolation:auto;mix-blend-mode:normal;color-interpolation:sRGB;color-interpolation-filters:linearRGB;solid-color:#000000;solid-opacity:1;fill:#e3dedb;fill-opacity:1;fill-rule:evenodd;stroke:#c8beb7;stroke-width:1;stroke-linecap:round;stroke-linejoin:miter;stroke-miterlimit:4;stroke-dasharray:none;stroke-dashoffset:0;stroke-opacity:1;color-rendering:auto;image-rendering:auto;shape-rendering:auto;text-rendering:auto;enable-background:accumulate" />
      <ellipse
         ry="0.56821078"
         rx="0.44194174"
         cy="529.82922"
         cx="389.00342"
         id="path4995-7-3"
         style="color:#000000;clip-rule:nonzero;display:inline;overflow:visible;visibility:visible;opacity:1;isolation:auto;mix-blend-mode:normal;color-interpolation:sRGB;color-interpolation-filters:linearRGB;solid-color:#000000;solid-opacity:1;fill:#e3dedb;fill-opacity:1;fill-rule:evenodd;stroke:#c8beb7;stroke-width:1;stroke-linecap:round;stroke-linejoin:miter;stroke-miterlimit:4;stroke-dasharray:none;stroke-dashoffset:0;stroke-opacity:1;color-rendering:auto;image-rendering:auto;shape-rendering:auto;text-rendering:auto;enable-background:accumulate" />
      <ellipse
         ry="4.2931485"
         rx="4.1668792"
         cy="517.23389"
         cx="387.64603"
         id="path4978-6-5"
         style="color:#000000;clip-rule:nonzero;display:inline;overflow:visible;visibility:visible;opacity:1;isolation:auto;mix-blend-mode:normal;color-interpolation:sRGB;color-interpolation-filters:linearRGB;solid-color:#000000;solid-opacity:1;fill:#e3dedb;fill-opacity:1;fill-rule:evenodd;stroke:#c8beb7;stroke-width:1;stroke-linecap:round;stroke-linejoin:miter;stroke-miterlimit:4;stroke-dasharray:none;stroke-dashoffset:0;stroke-opacity:1;color-rendering:auto;image-rendering:auto;shape-rendering:auto;text-rendering:auto;enable-background:accumulate" />
      <ellipse
         ry="0.56821078"
         rx="0.44194174"
         cy="517.51801"
         cx="386.28864"
         id="path4995-5-6"
         style="color:#000000;clip-rule:nonzero;display:inline;overflow:visible;visibility:visible;opacity:1;isolation:auto;mix-blend-mode:normal;color-interpolation:sRGB;color-interpolation-filters:linearRGB;solid-color:#000000;solid-opacity:1;fill:#e3dedb;fill-opacity:1;fill-rule:evenodd;stroke:#c8beb7;stroke-width:1;stroke-linecap:round;stroke-linejoin:miter;stroke-miterlimit:4;stroke-dasharray:none;stroke-dashoffset:0;stroke-opacity:1;color-rendering:auto;image-rendering:auto;shape-rendering:auto;text-rendering:auto;enable-background:accumulate" />
      <ellipse
         ry="0.56821078"
         rx="0.44194174"
         cy="517.45483"
         cx="389.00342"
         id="path4995-7-3-2"
         style="color:#000000;clip-rule:nonzero;display:inline;overflow:visible;visibility:visible;opacity:1;isolation:auto;mix-blend-mode:normal;color-interpolation:sRGB;color-interpolation-filters:linearRGB;solid-color:#000000;solid-opacity:1;fill:#e3dedb;fill-opacity:1;fill-rule:evenodd;stroke:#c8beb7;stroke-width:1;stroke-linecap:round;stroke-linejoin:miter;stroke-miterlimit:4;stroke-dasharray:none;stroke-dashoffset:0;stroke-opacity:1;color-rendering:auto;image-rendering:auto;shape-rendering:auto;text-rendering:auto;enable-background:accumulate" />
    </g>
    <path
       style="fill:#4d4d4d;fill-rule:evenodd;stroke:#000000;stroke-width:5.65267706px;stroke-linecap:butt;stroke-linejoin:miter;stroke-opacity:1"
       d="m 689.26454,802.60494 c 0,0 -13.61141,-7.14934 -14.06182,-14.27272 -0.45051,-7.12334 1.7469,-22.13815 1.7469,-22.13815 0,0 14.40551,-2.91339 24.4683,-2.11936 10.06279,0.79409 19.80794,5.61328 19.80794,5.61328 0,0 -0.66126,21.21121 -8.41978,29.71188 -7.75868,8.50066 -23.54154,3.20507 -23.54154,3.20507 z"
       id="path4957"
       inkscape:connector-curvature="0" />
    <path
       style="fill:none;fill-rule:evenodd;stroke:#000000;stroke-width:5.65267706px;stroke-linecap:butt;stroke-linejoin:miter;stroke-opacity:1"
       d="m 349.62947,754.30915 c 0,0 114.20133,8.56504 141.32418,44.25299 27.12278,35.68791 37.59217,136.79163 83.50971,72.08957 31.40532,-44.25295 79.22707,-30.23161 91.36107,-32.11909 32.11913,-4.99634 27.83654,-32.8329 27.83654,-32.8329"
       id="path4953"
       inkscape:connector-curvature="0"
       sodipodi:nodetypes="csssc" />
    <path
       style="fill:none;fill-rule:evenodd;stroke:#000000;stroke-width:5.65267706px;stroke-linecap:butt;stroke-linejoin:miter;stroke-opacity:1"
       d="m 401.02006,727.1863 82.79601,64.23827"
       id="path4955"
       inkscape:connector-curvature="0" />
  </g>
</svg>
